<svg width="617px" height="102px" viewBox="0 0 617 102" xmlns="http://www.w3.org/2000/svg" xmlns:xlink="http://www.w3.org/1999/xlink" style="width: 617px; height: 102px;"><g transform="matrix(1, 0, 0, 1, 0, 0)" clip-path="url(#mainClip891)"><rect x="0" y="0" width="617" height="102" fill="white" stroke="none" transform="matrix(1, 0, 0, 1, 0, 0)"/><g transform="matrix(1, 0, 0, 1, 581.1542205810547, 340.55842208862305)"><g transform="matrix(1, 0, 0, 1, -580.1542205810547, -303.1947898864746)"><g transform="matrix(1, 0, 0, 1, 0, 0)"><path d="M 0,0 L 120,0 L 120,60 L 0,60 z" fill="#282c34" stroke="none" transform="matrix(1, 0, 0, 1, 1.75, 1.75)"/><path d="M 0,0 L 120,0 L 120,60 L 0,60 z" fill="none" stroke="#00A9C9" stroke-width="3.5" stroke-linecap="butt" stroke-linejoin="miter" stroke-miterlimit="10" transform="matrix(1, 0, 0, 1, 1.75, 1.75)"/><text x="0" y="11.906586456298829" style="font: bold 11pt Lato, Helvetica, Arial, sans-serif" text-anchor="start" fill="#F8F8F8" stroke="none" transform="matrix(1, 0, 0, 1, 41.388519287109375, 23.812275695800782)">Entity</text></g><path d="M 0,0 L 123.5,0 L 123.5,8 L 0,8 z" fill="transparent" stroke="none" transform="matrix(1, 0, 0, 1, 0, 0)"/><path d="M 0,0 L 8,0 L 8,63.5 L 0,63.5 z" fill="transparent" stroke="none" transform="matrix(1, 0, 0, 1, 0, 0)"/><path d="M 0,0 L 8,0 L 8,63.5 L 0,63.5 z" fill="transparent" stroke="none" transform="matrix(1, 0, 0, 1, 115.5, 0)"/><path d="M 0,0 L 123.5,0 L 123.5,8 L 0,8 z" fill="transparent" stroke="none" transform="matrix(1, 0, 0, 1, 0, 55.5)"/></g><g transform="matrix(1, 0, 0, 1, -89.28248596191406, -339.55842208862305)"><g transform="matrix(1, 0, 0, 1, 0, 0)"><path d="M 60,0 C 93.13708498984761,0 120,13.431457505076192 120,30 C 120,46.568542494923804 93.13708498984761,60 60,60 C 26.862915010152385,60 0,46.568542494923804 0,30 C 0,13.431457505076192 26.862915010152385,0 60,0 z" fill="#282c34" stroke="none" transform="matrix(1, 0, 0, 1, 1.75, 1.75)"/><path d="M 60,0 C 93.13708498984761,0 120,13.431457505076192 120,30 C 120,46.568542494923804 93.13708498984761,60 60,60 C 26.862915010152385,60 0,46.568542494923804 0,30 C 0,13.431457505076192 26.862915010152385,0 60,0 z" fill="none" stroke="#09d3ac" stroke-width="3.5" stroke-linecap="butt" stroke-linejoin="miter" stroke-miterlimit="10" transform="matrix(1, 0, 0, 1, 1.75, 1.75)"/><text x="0" y="11.906586456298829" style="font: bold 11pt Lato, Helvetica, Arial, sans-serif" text-anchor="start" fill="#F8F8F8" stroke="none" transform="matrix(1, 0, 0, 1, 31.21314239501953, 23.812275695800782)">Attribute</text></g><path d="M 0,0 L 8,0 L 8,63.5 L 0,63.5 z" fill="transparent" stroke="none" transform="matrix(1, 0, 0, 1, 0, 0)"/><path d="M 0,0 L 8,0 L 8,63.5 L 0,63.5 z" fill="transparent" stroke="none" transform="matrix(1, 0, 0, 1, 115.5, 0)"/><path d="M 0,0 L 123.5,0 L 123.5,8 L 0,8 z" fill="transparent" stroke="none" transform="matrix(1, 0, 0, 1, 0, 55.5)"/><path d="M 0,0 L 123.5,0 L 123.5,8 L 0,8 z" fill="transparent" stroke="none" transform="matrix(1, 0, 0, 1, 0, 0)"/></g></g></g><clipPath id="mainClip891"><rect x="0" y="0" width="617px" height="102px"/></clipPath></svg>