<?xml version="1.0" standalone="no"?>
<svg xmlns="http://www.w3.org/2000/svg" viewBox="0 0 161.40625 52" width="161.40625" height="52"><rect fill="none" stroke="#00b2ff" stroke-width="3" width="158.40625" height="49" x="1.5" y="1.5"></rect><g fill="#ffffff" color="#ffffff" transform="translate(12, 11.999999999999998) scale(0.2800001)"><svg width="100.0" height="100.0" x="0.0" y="0.0" viewBox="0 0 100 100"><g><g><path d="M49.755,0C25.839,0,7.106,10.274,7.106,23.39c0,0.334,0.024,0.666,0.05,0.999h-0.05c0,0-0.012,7.371-0.053,16.711    C7.029,53.756,6.991,70.03,6.991,76.531c0,13.104,18.669,23.379,42.521,23.379c23.774,0,42.393-10.275,42.393-23.379    c0-3.569,0.051-10.262,0.115-17.708c0.153-15.817,0.37-35.113,0.385-35.395c0-0.012,0-0.025,0-0.039    C92.404,10.274,73.67,0,49.755,0z M12.889,76.531c0-1.881,0-4.593,0.013-7.805c6.682,7.177,20.513,12.002,36.854,12.002    c15.881,0,29.391-4.555,36.275-11.4c-0.011,2.969-0.024,5.45-0.024,7.203c0,9.47-16.712,17.479-36.494,17.479    C29.664,94.011,12.889,86.001,12.889,76.531z M49.755,5.911c0.013,0,0.013,0,0.025,0c19.896,0.014,36.711,7.998,36.711,17.479    v0.014c0,1.983-0.743,3.902-2.099,5.693c-0.281,0.397-0.614,0.781-0.986,1.165c-0.331,0.372-0.689,0.73-1.086,1.075    c-0.346,0.32-0.705,0.627-1.074,0.909c-0.397,0.319-0.808,0.627-1.241,0.921c-0.397,0.269-0.807,0.538-1.241,0.806    c-2.381,1.471-5.248,2.75-8.459,3.8c-5.899,1.946-13.001,3.097-20.55,3.097c-7.55,0-14.653-1.15-20.551-3.097    c-3.212-1.05-6.077-2.342-8.457-3.8c-0.437-0.268-0.845-0.538-1.242-0.806c-0.435-0.294-0.845-0.602-1.24-0.921    c-0.372-0.294-0.729-0.589-1.076-0.909c-0.397-0.345-0.756-0.704-1.088-1.075c-0.37-0.383-0.689-0.767-0.973-1.165    c-1.369-1.791-2.111-3.722-2.111-5.707C13.017,13.908,29.844,5.911,49.755,5.911z M12.901,63.736    c0.014-3.827,0.025-8.023,0.025-12.221c0.04-0.114,0.078-0.244,0.104-0.357c1.241,1.305,2.714,2.533,4.401,3.659    c7.474,5.028,19.079,8.202,32.323,8.202c13.243,0,24.85-3.174,32.322-8.202c1.561-1.037,2.943-2.176,4.12-3.365    c-0.052,4.145-0.089,8.292-0.129,12.055c0,0.383,0,0.741,0,1.112c-5.078,7.549-19.652,13.153-36.313,13.153    c-16.968,0-31.772-5.822-36.583-13.575C13.069,64.043,12.979,63.89,12.901,63.736z M13.234,35.624    c0.678,0.627,1.421,1.228,2.202,1.804c0.409,0.306,0.832,0.601,1.268,0.895c0.408,0.269,0.817,0.537,1.253,0.807    c2.137,1.304,4.541,2.47,7.19,3.48c6.91,2.636,15.368,4.171,24.607,4.171c9.238,0,17.696-1.535,24.605-4.171    c2.636-1.01,5.043-2.176,7.191-3.48c0.423-0.27,0.845-0.525,1.256-0.807c0.447-0.294,0.87-0.589,1.279-0.895    c0.779-0.577,1.521-1.177,2.199-1.792c0.026,0.039,0.053,0.09,0.076,0.127c-0.023,1.984-0.05,4.107-0.076,6.334    c-0.013,1.292-0.025,2.61-0.037,3.954c0,0.192,0,0.385,0,0.576c-0.27,0.422-0.562,0.832-0.896,1.241    c-1.218,1.523-2.817,2.957-4.749,4.262c-7.024,4.773-18.349,7.934-30.85,7.934c-12.502,0-23.827-3.16-30.852-7.934    c-1.934-1.305-3.531-2.738-4.747-4.262c-0.385-0.486-0.729-0.972-1.037-1.471c-0.063-0.102-0.127-0.205-0.178-0.308    c0.012-1.138,0.012-2.264,0.012-3.364c0.014-2.355,0.014-4.594,0.026-6.667C13.056,35.917,13.131,35.763,13.234,35.624z"></path></g></g></svg></g><path fill="#ffffff" fill-rule="nonzero" d="M3.15 16.78L3.15 16.78Q2.60 16.73 2.42 16.51Q2.24 16.28 2.24 15.77L2.24 15.77L2.24 1.64L0 1.64L0 0.70Q0.35 0.59 1.12 0.46Q1.89 0.34 2.92 0.23Q3.95 0.13 5.18 0.06Q6.41 0 7.69 0L7.69 0Q8.24 0 8.90 0.01Q9.56 0.02 10.22 0.06Q10.89 0.11 11.51 0.18Q12.13 0.25 12.61 0.38Q13.09 0.50 13.38 0.70Q13.66 0.89 13.66 1.16L13.66 1.16Q13.66 1.28 13.52 1.58Q13.37 1.89 13.18 2.22Q13.00 2.55 12.82 2.84Q12.64 3.13 12.59 3.20L12.59 3.20Q12.59 3.19 12.28 2.98Q11.96 2.77 11.34 2.51Q10.71 2.26 9.77 2.05Q8.84 1.84 7.59 1.83L7.59 1.83L4.99 1.80L4.99 7.35L11.19 7.35L11.19 7.92Q11.19 8.54 10.93 8.77Q10.66 9 10.09 9L10.09 9L4.99 9L4.99 15.13L7.11 15.13Q8.68 15.13 10.27 14.92Q11.85 14.71 13.37 14.21L13.37 14.21Q13.37 14.23 13.41 14.34Q13.44 14.45 13.49 14.64Q13.54 14.82 13.58 15.06Q13.62 15.30 13.62 15.54L13.62 15.54Q13.62 16.09 13.34 16.37Q13.05 16.65 12.43 16.78Q11.81 16.90 10.80 16.91Q9.79 16.92 8.33 16.92L8.33 16.92Q7.54 16.92 6.73 16.91Q5.93 16.90 5.23 16.88Q4.54 16.86 3.99 16.83Q3.45 16.80 3.15 16.78ZM23.95 15.87L23.95 15.75Q23.95 15.75 23.79 15.85Q23.64 15.95 23.36 16.10Q23.09 16.25 22.72 16.44Q22.35 16.62 21.91 16.78Q21.47 16.93 20.99 17.04Q20.52 17.14 20.04 17.14L20.04 17.14Q19.28 17.14 18.59 16.94Q17.89 16.73 17.37 16.30Q16.85 15.87 16.54 15.21Q16.23 14.55 16.23 13.64L16.23 13.64Q16.23 12.63 16.68 11.93Q17.13 11.23 17.94 10.79Q18.74 10.35 19.85 10.15Q20.96 9.96 22.30 9.96L22.30 9.96L23.95 9.96L23.95 9.08Q23.95 8.40 23.90 7.78Q23.85 7.15 23.65 6.68Q23.46 6.21 23.09 5.93Q22.72 5.65 22.10 5.65L22.10 5.65Q21.50 5.65 20.91 5.87Q20.31 6.08 19.73 6.41Q19.16 6.74 18.63 7.13Q18.11 7.52 17.67 7.88L17.67 7.88L16.71 6.59Q16.54 6.38 16.54 6.15L16.54 6.15Q16.54 5.77 17.02 5.45Q17.51 5.13 18.24 4.90Q18.97 4.68 19.82 4.55Q20.66 4.42 21.39 4.42L21.39 4.42Q22.46 4.42 23.43 4.68Q24.39 4.93 25.11 5.49Q25.83 6.05 26.25 6.93Q26.67 7.82 26.67 9.08L26.67 9.08L26.67 15.61L28.71 15.61L28.71 16.49Q28.51 16.59 28.17 16.69Q27.82 16.78 27.40 16.85Q26.98 16.92 26.51 16.96Q26.05 16.99 25.63 16.99L25.63 16.99Q25.35 16.99 25.05 16.96Q24.76 16.92 24.52 16.80Q24.28 16.68 24.12 16.46Q23.96 16.24 23.95 15.87L23.95 15.87ZM20.86 15.41L20.86 15.41Q21.27 15.41 21.80 15.30Q22.34 15.19 22.82 15.06L22.82 15.06Q23.38 14.91 23.95 14.70L23.95 14.70L23.95 11.40L21.98 11.40Q21.54 11.40 21.01 11.48Q20.47 11.57 20.01 11.79Q19.55 12.02 19.23 12.43Q18.91 12.84 18.91 13.51L18.91 13.51Q18.91 13.93 19.04 14.28Q19.17 14.63 19.42 14.88Q19.66 15.13 20.03 15.27Q20.39 15.41 20.86 15.41ZM31.37 13.95L31.37 13.95Q31.69 14.18 32.14 14.51Q32.59 14.84 33.13 15.13Q33.67 15.43 34.27 15.65Q34.88 15.87 35.50 15.87L35.50 15.87Q35.88 15.87 36.24 15.76Q36.60 15.64 36.88 15.42Q37.16 15.20 37.32 14.88Q37.49 14.55 37.49 14.14L37.49 14.14Q37.49 13.66 37.18 13.30Q36.87 12.94 36.42 12.66Q35.96 12.38 35.45 12.16Q34.93 11.94 34.54 11.77L34.54 11.77Q33.84 11.46 33.16 11.13Q32.47 10.80 31.93 10.35Q31.38 9.90 31.04 9.28Q30.69 8.66 30.69 7.76L30.69 7.76Q30.69 6.86 31.14 6.22Q31.59 5.59 32.31 5.19Q33.04 4.78 33.93 4.60Q34.82 4.42 35.68 4.42L35.68 4.42Q36.22 4.42 36.83 4.46Q37.43 4.51 37.94 4.62Q38.45 4.73 38.78 4.91Q39.12 5.09 39.12 5.33L39.12 5.33Q39.12 5.43 39.05 5.58L39.05 5.58L38.25 7.11Q38.03 6.97 37.65 6.74Q37.27 6.52 36.79 6.30Q36.30 6.09 35.76 5.94Q35.21 5.79 34.65 5.79L34.65 5.79Q33.84 5.79 33.33 6.16Q32.81 6.54 32.81 7.23L32.81 7.23Q32.81 7.77 33.12 8.17Q33.42 8.57 33.92 8.88Q34.42 9.19 35.06 9.44Q35.70 9.69 36.36 9.96Q37.03 10.23 37.67 10.54Q38.31 10.84 38.81 11.24Q39.30 11.65 39.61 12.18Q39.91 12.71 39.91 13.44L39.91 13.44Q39.91 14.47 39.47 15.18Q39.02 15.88 38.31 16.32Q37.61 16.76 36.73 16.95Q35.86 17.14 35.02 17.14L35.02 17.14Q34.29 17.14 33.47 16.99Q32.65 16.83 31.96 16.59Q31.27 16.35 30.81 16.07Q30.36 15.79 30.36 15.54L30.36 15.54Q30.36 15.39 30.43 15.25L30.43 15.25L31.37 13.95ZM54.02 4.57L54.02 4.57Q54.25 4.57 54.39 4.69Q54.54 4.80 54.62 4.99Q54.70 5.18 54.73 5.40Q54.76 5.61 54.76 5.81L54.76 5.81Q54.76 6.50 54.57 7.38Q54.38 8.25 54.04 9.22Q53.71 10.20 53.28 11.23Q52.85 12.26 52.39 13.25Q51.93 14.24 51.45 15.15Q50.98 16.05 50.57 16.78L50.57 16.78Q50.19 17.44 49.78 18.12Q49.36 18.80 48.87 19.44Q48.39 20.09 47.82 20.65Q47.25 21.22 46.59 21.65Q45.93 22.08 45.14 22.32Q44.36 22.57 43.44 22.57L43.44 22.57Q43.27 22.57 42.95 22.55Q42.63 22.52 42.33 22.45Q42.04 22.38 41.81 22.25Q41.59 22.11 41.59 21.89L41.59 21.89Q41.59 21.83 41.60 21.80Q41.61 21.76 41.64 21.70L41.64 21.70L42.28 19.97Q43.16 20.23 43.81 20.43Q44.46 20.63 45.02 20.63L45.02 20.63Q45.52 20.63 46.02 20.31Q46.52 20.00 46.97 19.55Q47.43 19.09 47.79 18.56Q48.15 18.02 48.39 17.58L48.39 17.58L43.65 6.73L41.88 7.51L41.45 6.73Q41.73 6.47 42.15 6.09Q42.57 5.72 43.07 5.38Q43.56 5.05 44.09 4.81Q44.61 4.57 45.12 4.57L45.12 4.57Q45.41 4.57 45.66 4.69Q45.91 4.82 46.01 5.12L46.01 5.12Q46.01 5.14 46.17 5.53Q46.32 5.92 46.58 6.54Q46.84 7.17 47.17 7.97Q47.50 8.78 47.85 9.63Q48.20 10.49 48.54 11.33Q48.89 12.16 49.18 12.86Q49.46 13.55 49.67 14.03Q49.88 14.52 49.95 14.67L49.95 14.67Q50.34 13.93 50.78 13.04Q51.22 12.14 51.59 11.21Q51.95 10.29 52.18 9.41Q52.42 8.53 52.42 7.83L52.42 7.83Q52.42 7.21 52.27 6.62Q52.11 6.04 51.81 5.52L51.81 5.52L53.36 4.76Q53.77 4.57 54.02 4.57ZM61.27 1.66L61.27 8.55Q61.50 8.64 61.82 8.68L61.82 8.68Q62.09 8.74 62.48 8.78Q62.88 8.81 63.41 8.81L63.41 8.81Q64.62 8.81 65.38 8.51Q66.14 8.21 66.58 7.72Q67.02 7.23 67.18 6.60Q67.35 5.96 67.35 5.29L67.35 5.29Q67.35 4.54 67.22 3.86Q67.09 3.19 66.66 2.67Q66.23 2.16 65.41 1.85Q64.58 1.55 63.19 1.55L63.19 1.55Q62.75 1.55 62.26 1.57Q61.76 1.59 61.27 1.66L61.27 1.66ZM67.03 9.89L70.42 14.93L72.32 13.69L72.89 14.47Q72.62 14.85 72.22 15.29Q71.82 15.73 71.34 16.10Q70.86 16.48 70.34 16.73Q69.82 16.99 69.32 16.99L69.32 16.99Q68.98 16.99 68.63 16.82Q68.29 16.65 67.99 16.18L67.99 16.18L64.35 10.32Q64.21 10.32 63.90 10.32Q63.59 10.32 63.18 10.31Q62.77 10.30 62.27 10.28Q61.78 10.25 61.27 10.21L61.27 10.21L61.27 13.09Q61.27 13.84 61.32 14.41Q61.37 14.99 61.45 15.42Q61.52 15.84 61.59 16.13Q61.66 16.42 61.70 16.59L61.70 16.59Q61.52 16.69 61.31 16.76Q61.09 16.84 60.85 16.89Q60.61 16.95 60.38 16.97Q60.14 16.99 59.93 16.99L59.93 16.99Q59.63 16.99 59.36 16.93Q59.10 16.88 58.91 16.74Q58.72 16.61 58.62 16.38Q58.51 16.16 58.51 15.82L58.51 15.82L58.51 1.78L56.25 1.92L56.25 0.89Q56.40 0.84 56.63 0.76Q56.85 0.67 57.21 0.57Q57.57 0.47 58.11 0.37Q58.64 0.27 59.41 0.19Q60.18 0.11 61.22 0.05Q62.26 0 63.64 0L63.64 0Q64.98 0 66.16 0.23Q67.34 0.46 68.23 1.05Q69.12 1.64 69.63 2.67Q70.15 3.69 70.15 5.29L70.15 5.29Q70.15 7.01 69.35 8.18Q68.55 9.35 67.03 9.89L67.03 9.89ZM77.71 15.34L77.71 15.34Q77.53 15.69 77.26 16.00Q76.98 16.31 76.64 16.55Q76.30 16.78 75.91 16.92Q75.52 17.05 75.09 17.05L75.09 17.05Q74.79 17.05 74.57 16.90Q74.36 16.75 74.23 16.37L74.23 16.37L73.75 14.93Q73.88 14.87 74.13 14.79Q74.38 14.71 74.67 14.57Q74.96 14.43 75.26 14.20Q75.56 13.98 75.79 13.64L75.79 13.64Q76.00 13.31 76.21 12.51Q76.42 11.71 76.61 10.62Q76.79 9.54 76.96 8.27Q77.13 7.01 77.26 5.77Q77.38 4.52 77.46 3.40Q77.53 2.27 77.54 1.46L77.54 1.46L75.26 1.46L75.26 0.54Q75.41 0.46 75.76 0.36Q76.11 0.27 76.54 0.19Q76.97 0.11 77.42 0.05Q77.87 0 78.23 0L78.23 0Q78.71 0 79.06 0.02Q79.41 0.04 79.66 0.10Q79.92 0.16 80.10 0.29Q80.29 0.42 80.43 0.63L80.43 0.63Q80.86 1.64 81.30 2.75Q81.75 3.86 82.17 4.99Q82.59 6.13 85.29 14.07L85.29 14.07Q87.69 6.82 88.34 5.03Q88.98 3.25 89.46 2.04Q89.94 0.84 90.21 0.39L90.21 0.39Q90.20 0.38 90.39 0.31Q90.59 0.25 90.87 0.18Q91.15 0.11 91.47 0.05Q91.79 0 92.06 0L92.06 0Q92.34 0 92.52 0.05Q92.70 0.11 92.80 0.22Q92.91 0.33 92.96 0.50Q93.02 0.67 93.07 0.89L93.07 0.89L94.97 15.20L97.20 14.86L97.41 15.73Q97.16 15.97 96.70 16.21Q96.25 16.45 95.70 16.65Q95.16 16.85 94.58 16.97Q94.00 17.10 93.50 17.10L93.50 17.10Q93.30 17.10 93.10 17.06Q92.89 17.02 92.72 16.92Q92.55 16.82 92.43 16.65Q92.31 16.48 92.27 16.21L92.27 16.21L90.81 4.18Q89.73 7.29 88.41 10.83Q87.09 14.38 86.77 15.15Q86.45 15.93 86.27 16.29Q86.09 16.65 86.03 16.72Q85.97 16.79 85.97 16.78L85.97 16.78L84.69 16.78Q84.41 16.78 84.20 16.74Q83.99 16.70 83.82 16.59Q83.66 16.49 83.53 16.30Q83.40 16.11 83.30 15.82L83.30 15.82Q82.15 12.75 81.38 10.56Q80.60 8.37 80.13 6.96L80.13 6.96Q79.58 5.31 79.27 4.23L79.27 4.23Q79.21 5.23 79.14 6.29Q79.08 7.35 78.99 8.41Q78.90 9.47 78.79 10.49Q78.67 11.51 78.52 12.41Q78.36 13.31 78.16 14.07Q77.96 14.82 77.71 15.34Z" transform="translate(52 17.609375)"></path></svg>